#define correcte_width 40
#define correcte_height 40
static unsigned char correcte_bits[] = {
   0x00, 0x00, 0x00, 0x00, 0x00, 0xfe, 0x01, 0x03, 0x00, 0x00, 0x06, 0xc0,
   0x06, 0x00, 0x00, 0x0a, 0x40, 0x04, 0x30, 0x00, 0x12, 0x40, 0x0c, 0x48,
   0x00, 0x22, 0xc0, 0x08, 0x44, 0x00, 0x42, 0x80, 0x08, 0x64, 0x00, 0x82,
   0x80, 0x08, 0x22, 0x00, 0x02, 0x81, 0x19, 0x22, 0x00, 0x00, 0x00, 0x11,
   0x32, 0x00, 0x00, 0x00, 0x11, 0x11, 0x00, 0x00, 0x00, 0x31, 0x19, 0x00,
   0x00, 0x00, 0xb3, 0x09, 0x00, 0x00, 0x00, 0xa3, 0x08, 0x00, 0x00, 0x00,
   0xa2, 0x04, 0x00, 0x00, 0x00, 0xa6, 0x04, 0x00, 0x00, 0x00, 0x44, 0x04,
   0x00, 0x00, 0x00, 0x04, 0x0c, 0x00, 0x00, 0xe0, 0xff, 0x09, 0x00, 0x00,
   0x20, 0x06, 0x0b, 0x00, 0x00, 0x20, 0x06, 0x0a, 0x00, 0x00, 0x38, 0x0c,
   0x0e, 0x00, 0x00, 0x6c, 0x7c, 0x0c, 0x00, 0x00, 0x44, 0x4c, 0x0c, 0x00,
   0x00, 0x4c, 0x48, 0x08, 0x00, 0x00, 0x88, 0x48, 0x08, 0x00, 0x00, 0x18,
   0x49, 0x18, 0x00, 0x00, 0x18, 0x0b, 0x18, 0x00, 0x00, 0x38, 0x05, 0x18,
   0x00, 0x00, 0x68, 0x01, 0x08, 0x00, 0x00, 0xc8, 0x00, 0x04, 0x00, 0x00,
   0x18, 0x00, 0x06, 0x00, 0x00, 0x10, 0x00, 0x02, 0x00, 0x00, 0x20, 0x00,
   0x01, 0x00, 0x00, 0x20, 0x00, 0x01, 0x00, 0x00, 0x40, 0x00, 0x01, 0x00,
   0x00, 0x40, 0x00, 0x01, 0x00, 0x00, 0x40, 0xc0, 0x00, 0x00, 0x00, 0x80,
   0xff, 0x00, 0x00, 0x00, 0x00, 0x00, 0x00, 0x00};
